<svg width="161" height="120" viewBox="0 0 161 120" fill="none" xmlns="http://www.w3.org/2000/svg">
<path d="M49.7666 34.0834C53.3274 32.7164 55.1044 28.7274 53.7351 25.1724C52.3659 21.6174 48.3703 19.8444 44.8094 21.2104C41.2496 22.5774 39.4727 26.5674 40.8409 30.1214C42.2102 33.6764 46.2067 35.4494 49.7666 34.0834Z" fill="#0D8300"/>
<path d="M48.198 31.8982C51.7889 30.5192 53.5808 26.4962 52.1995 22.9112C50.8193 19.3252 46.7887 17.5372 43.1978 18.9152C39.6069 20.2932 37.8149 24.3172 39.1962 27.9022C40.5765 31.4872 44.6071 33.2762 48.198 31.8982Z" fill="#75FE66"/>
<path d="M94.3951 101.203C94.085 101.026 93.7932 100.821 93.5241 100.588L64.0966 75.0653C63.2765 74.3471 62.7103 73.4104 62.4908 72.406C62.2713 71.4016 62.4106 70.3883 62.8876 69.5317L89.1705 23.107C89.6164 22.3141 90.3299 21.6997 91.21 21.3508C92.0901 21.0019 93.0907 20.9362 94.0718 21.1635L132.907 30.0924C133.406 30.2124 133.89 30.4032 134.341 30.6569C135.455 31.2898 136.299 32.2933 136.688 33.4464C137.076 34.5981 136.979 35.8075 136.416 36.8056L100.74 99.8206C100.584 100.101 100.389 100.36 100.164 100.591C99.4792 101.302 98.5362 101.749 97.4896 101.861C96.4416 101.971 95.3516 101.74 94.3951 101.203Z" fill="#0D8300"/>
<path d="M100.435 36.8358C98.6185 30.4665 91.9853 26.773 85.6144 28.5836L54.0986 37.5399C47.7196 39.3527 44.0204 45.996 45.8389 52.3734L54.5187 82.8132C56.335 89.1826 62.9682 92.8761 69.3393 91.0655L100.855 82.1086C107.234 80.2956 110.933 73.6523 109.115 67.275L100.435 36.8358Z" fill="#0EF500"/>
<path d="M140.427 87.3503L141.426 92.0973L138.215 89.007L130.694 92.3203L135.895 86.9053L132.354 82.9324L137.554 84.1442L140.32 78.2927L139.989 84.2599L145.191 83.2628L140.427 87.3503Z" fill="#0D8300"/>
<path d="M139.106 86.0311L140.105 90.778L136.894 87.6877L129.373 91.0011L134.574 85.5861L131.032 81.606L136.233 82.825L138.999 76.9663L138.66 82.9323L143.861 81.9436L139.106 86.0311Z" fill="#75FE66"/>
<path d="M47.3741 97.8429C47.1788 100.582 49.2452 102.96 51.9887 103.155C54.7322 103.35 57.1141 101.287 57.3094 98.5479C57.5047 95.8089 55.4384 93.4309 52.6948 93.2359C49.9503 93.0409 47.5684 95.1039 47.3741 97.8429Z" fill="#0D8300"/>
<path d="M18.3478 58.0782L20.7898 50.1312C20.7918 50.1192 20.8039 50.1212 20.8089 50.1282L31.256 65.6672C31.261 65.6742 31.254 65.6792 31.241 65.6772L18.3458 58.0902C18.3408 58.0832 18.3408 58.0832 18.3478 58.0782Z" fill="#75FE66"/>
<path d="M128.304 36.244L126.948 38.41L129.255 36.913L130.085 38.635L130.098 36.508L132.624 35.742L130.095 35.51L131.361 33.17L129.274 35.133L128.299 32.979L128.497 35.459L126.176 35.133L128.304 36.244Z" fill="#0EF500" stroke="#0EF500" stroke-linecap="round" stroke-linejoin="round"/>
<path d="M35.0739 75.9182L36.5433 73.5702L34.0422 75.1932L33.1427 73.3252L33.1287 75.6322L30.3892 76.4632L33.1307 76.7142L31.7594 79.2512L34.0211 77.1232L35.0789 79.4582L34.8645 76.7702L37.3796 77.1232L35.0739 75.9182Z" fill="#0D8300" stroke="#0D8300" stroke-linecap="round" stroke-linejoin="round"/>
<path d="M79.4369 78.3191C89.7048 77.4951 97.3593 68.5171 96.534 58.2661C95.7086 48.0151 86.7159 40.3731 76.448 41.1971C66.1802 42.0211 58.5256 50.9991 59.351 61.2501C60.1763 71.5011 69.1691 79.1431 79.4369 78.3191Z" fill="#D7FFD3"/>
<path d="M76.7807 49.6717L76.7506 49.6737C74.7764 49.8827 71.1334 51.4937 71.506 56.1187C71.5761 56.9927 72.3384 57.6407 73.2138 57.5697C74.0883 57.4997 74.7373 56.7387 74.6672 55.8647C74.4649 53.3437 76.4401 52.9057 77.0641 52.8257C79.0835 52.6737 80.4226 53.6547 80.5649 55.4117C80.6681 56.7017 80.1692 57.2117 78.83 58.2287C77.6321 59.1337 75.8221 60.5177 76.1356 63.2896L76.1727 63.7456C76.2428 64.6196 77.005 65.2676 77.8805 65.1976C78.7449 65.1276 79.405 64.3756 79.3549 63.5006L79.3098 62.9446C79.2056 62.0247 79.5763 61.6547 80.7642 60.7507L80.7832 60.7387C82.0563 59.7677 83.9775 58.2847 83.7261 55.1577C83.4416 51.6247 80.5879 49.3657 76.7807 49.6717Z" fill="#0D8300"/>
<path d="M78.1167 66.8967C77.1531 66.9737 76.431 67.8218 76.5081 68.7838C76.5852 69.7467 77.4336 70.4677 78.3982 70.3907C79.3718 70.3027 80.095 69.4647 80.0078 68.5028C79.9297 67.5408 79.0813 66.8197 78.1167 66.8967Z" fill="#0D8300"/>
</svg>
